# xmcd
#
# Track frame offsets:
#	182
#	15565
#	26070
#	42422
#	60355
#	77785
#	95455
#	109885
#	129142
#	146820
#	165337
#	187775
#	200452
#	219960
#	236722
#	249580
#	267042
#	279085
#
# Disc length: 3964 seconds
#
# Revision: 1
# Processed by: cddbd v1.5.1PL0 Copyright (c) Steve Scherf et al.
# Submitted via: EasyCDDAExtractor 6.5.7.1
#
DISCID=e90f7a12
DTITLE=Elton Saldanha - Sucessos de Ouro
DYEAR=1994
DGENRE=Gaúcha
TTITLE0=Baile de Pegá Cria
TTITLE1=Paraguaita
TTITLE2=Musa dos Guris
TTITLE3=Esse Veinho
TTITLE4=O Cheiro da China
TTITLE5=Itaqui
TTITLE6=Maninha
TTITLE7=Deixada Só
TTITLE8=Youmuyeryu
TTITLE9=Rancho da Ilusão
TTITLE10=Chama-me
TTITLE11=Florisbela
TTITLE12=Aldebarã
TTITLE13=Diário de Porto Alegre
TTITLE14=Cri Cri
TTITLE15=Aventuras de um Galope
TTITLE16=A Guriazinha e o Gaudério
TTITLE17=Neguinho Dado
EXTD=
EXTT0=
EXTT1=
EXTT2=
EXTT3=
EXTT4=
EXTT5=
EXTT6=
EXTT7=
EXTT8=
EXTT9=
EXTT10=
EXTT11=
EXTT12=
EXTT13=
EXTT14=
EXTT15=
EXTT16=
EXTT17=
PLAYORDER=
